<?xml version="1.0" standalone="no"?><!DOCTYPE svg PUBLIC "-//W3C//DTD SVG 1.1//EN" "http://www.w3.org/Graphics/SVG/1.1/DTD/svg11.dtd"><svg t="1497079259733" class="icon" style="" viewBox="0 0 1024 1024" version="1.1" xmlns="http://www.w3.org/2000/svg" p-id="2162" xmlns:xlink="http://www.w3.org/1999/xlink" width="200" height="200"><defs><style type="text/css"></style></defs><path d="M477.356992 321.381591 155.641803 674.863275l-0.955768 243.452731c-0.110517 28.217668 22.813588 51.314713 51.203172 51.27071l203.715705-0.317225L409.604912 819.36946c0-28.541033 22.698978-51.677986 51.677986-51.677986l101.43625 0c28.541033 0 51.677986 22.691815 51.677986 51.661613L614.397135 968.951243l203.458855-0.316202c28.432563-0.044002 51.404764-22.939455 51.404764-51.137681L869.260753 671.548786 546.43323 321.769424C526.849196 300.550147 496.200152 300.677037 477.356992 321.381591zM957.771623 513.763157 581.192895 80.871889c-37.536918-43.150776-97.982592-43.62252-135.694495-1.842974L64.052828 501.624698c-18.46863 20.461007-18.638499 54.663994 0.330528 75.609025l10.136871 11.1919c19.148106 21.141506 49.852408 20.849864 68.979024-0.212848l336.934822-371.022175c19.204387-21.147646 49.696866-21.092387 68.281129-0.068562l335.489914 379.552455c18.35095 20.760836 48.945759 20.922519 67.816548-0.226151l5.164626-5.78782C975.765439 569.836243 976.318024 535.082718 957.771623 513.763157z" p-id="2163"></path></svg>